<svg width="30" height="30" viewBox="0 0 30 30" fill="none" xmlns="http://www.w3.org/2000/svg">
<path d="M3.125 8.75C3.125 9.48869 3.2705 10.2201 3.55318 10.9026C3.83586 11.5851 4.25019 12.2051 4.77252 12.7275C5.29485 13.2498 5.91495 13.6641 6.59741 13.9468C7.27986 14.2295 8.01131 14.375 8.75 14.375C9.48869 14.375 10.2201 14.2295 10.9026 13.9468C11.5851 13.6641 12.2051 13.2498 12.7275 12.7275C13.2498 12.2051 13.6641 11.5851 13.9468 10.9026C14.2295 10.2201 14.375 9.48869 14.375 8.75C14.375 7.25816 13.7824 5.82742 12.7275 4.77252C11.6726 3.71763 10.2418 3.125 8.75 3.125C7.25816 3.125 5.82742 3.71763 4.77252 4.77252C3.71763 5.82742 3.125 7.25816 3.125 8.75ZM3.125 21.25C3.125 21.9887 3.2705 22.7201 3.55318 23.4026C3.83586 24.0851 4.25019 24.7051 4.77252 25.2275C5.29485 25.7498 5.91495 26.1641 6.59741 26.4468C7.27986 26.7295 8.01131 26.875 8.75 26.875C9.48869 26.875 10.2201 26.7295 10.9026 26.4468C11.5851 26.1641 12.2051 25.7498 12.7275 25.2275C13.2498 24.7051 13.6641 24.0851 13.9468 23.4026C14.2295 22.7201 14.375 21.9887 14.375 21.25C14.375 19.7582 13.7824 18.3274 12.7275 17.2725C11.6726 16.2176 10.2418 15.625 8.75 15.625C7.25816 15.625 5.82742 16.2176 4.77252 17.2725C3.71763 18.3274 3.125 19.7582 3.125 21.25ZM15.625 21.25C15.625 22.7418 16.2176 24.1726 17.2725 25.2275C18.3274 26.2824 19.7582 26.875 21.25 26.875C22.7418 26.875 24.1726 26.2824 25.2275 25.2275C26.2824 24.1726 26.875 22.7418 26.875 21.25C26.875 19.7582 26.2824 18.3274 25.2275 17.2725C24.1726 16.2176 22.7418 15.625 21.25 15.625C19.7582 15.625 18.3274 16.2176 17.2725 17.2725C16.2176 18.3274 15.625 19.7582 15.625 21.25ZM11.875 8.75C11.875 9.5788 11.5458 10.3737 10.9597 10.9597C10.3737 11.5458 9.5788 11.875 8.75 11.875C7.9212 11.875 7.12634 11.5458 6.54029 10.9597C5.95424 10.3737 5.625 9.5788 5.625 8.75C5.625 7.9212 5.95424 7.12634 6.54029 6.54029C7.12634 5.95424 7.9212 5.625 8.75 5.625C9.5788 5.625 10.3737 5.95424 10.9597 6.54029C11.5458 7.12634 11.875 7.9212 11.875 8.75ZM11.875 21.25C11.875 22.0788 11.5458 22.8737 10.9597 23.4597C10.3737 24.0458 9.5788 24.375 8.75 24.375C7.9212 24.375 7.12634 24.0458 6.54029 23.4597C5.95424 22.8737 5.625 22.0788 5.625 21.25C5.625 20.4212 5.95424 19.6263 6.54029 19.0403C7.12634 18.4542 7.9212 18.125 8.75 18.125C9.5788 18.125 10.3737 18.4542 10.9597 19.0403C11.5458 19.6263 11.875 20.4212 11.875 21.25ZM24.375 21.25C24.375 22.0788 24.0458 22.8737 23.4597 23.4597C22.8737 24.0458 22.0788 24.375 21.25 24.375C20.4212 24.375 19.6263 24.0458 19.0403 23.4597C18.4542 22.8737 18.125 22.0788 18.125 21.25C18.125 20.4212 18.4542 19.6263 19.0403 19.0403C19.6263 18.4542 20.4212 18.125 21.25 18.125C22.0788 18.125 22.8737 18.4542 23.4597 19.0403C24.0458 19.6263 24.375 20.4212 24.375 21.25ZM21.9062 13.9437L22.2537 13.1488C22.8606 11.7399 23.974 10.61 25.3737 9.9825L26.4412 9.5075C27.02 9.25125 27.02 8.41 26.4412 8.15375L25.4338 7.705C23.9972 7.06189 22.8634 5.89047 22.2675 4.43375L21.9112 3.57375C21.8583 3.44172 21.767 3.32857 21.6491 3.24887C21.5313 3.16918 21.3923 3.12659 21.25 3.12659C21.1077 3.12659 20.9687 3.16918 20.8509 3.24887C20.733 3.32857 20.6417 3.44172 20.5888 3.57375L20.2325 4.43375C19.6366 5.89047 18.5028 7.06189 17.0662 7.705L16.0588 8.15375C15.48 8.41 15.48 9.25125 16.0588 9.5075L17.1263 9.9825C18.526 10.61 19.6394 11.7399 20.2463 13.1488L20.5938 13.9437C20.6483 14.0727 20.7396 14.1828 20.8563 14.2601C20.973 14.3375 21.11 14.3788 21.25 14.3788C21.39 14.3788 21.527 14.3375 21.6437 14.2601C21.7604 14.1828 21.8517 14.0727 21.9062 13.9437Z" fill="currentColor"/>
</svg>
