<svg width="30" height="30" viewBox="0 0 30 30" fill="none" xmlns="http://www.w3.org/2000/svg">
<path d="M18.0663 16.1188C17.8775 16.9025 16.9825 17.4563 15.1912 18.5625C13.4625 19.6325 12.5975 20.1688 11.9 19.9538C11.6071 19.8599 11.3441 19.6904 11.1375 19.4625C10.625 18.9 10.625 17.8075 10.625 15.625C10.625 13.4425 10.625 12.35 11.1375 11.7875C11.35 11.555 11.6125 11.3863 11.9 11.2975C12.5975 11.0813 13.4625 11.6175 15.1925 12.6875C16.9825 13.795 17.8775 14.3488 18.0675 15.1313C18.145 15.4559 18.145 15.7942 18.0675 16.1188" stroke="currentColor" stroke-width="1.875" stroke-linecap="round" stroke-linejoin="round"/>
<path d="M26.2475 13.75C26.2492 14.3375 26.25 14.9625 26.25 15.625C26.25 21.2225 26.25 24.0225 24.5112 25.7612C22.7725 27.5 19.9738 27.5 14.375 27.5C8.7775 27.5 5.9775 27.5 4.23875 25.7612C2.5 24.0225 2.5 21.2238 2.5 15.625C2.5 10.0275 2.5 7.2275 4.23875 5.48875C5.9775 3.75 8.77625 3.75 14.375 3.75C15.0375 3.75 15.6625 3.75083 16.25 3.7525" stroke="currentColor" stroke-width="1.875" stroke-linecap="round" stroke-linejoin="round"/>
<path d="M23.125 2.5L23.4475 3.37125C23.87 4.51375 24.0812 5.085 24.4975 5.50125C24.915 5.91875 25.4862 6.13 26.6287 6.5525L27.5 6.875L26.6287 7.1975C25.4862 7.62 24.915 7.83125 24.4988 8.2475C24.0813 8.665 23.87 9.23625 23.4475 10.3788L23.125 11.25L22.8025 10.3788C22.38 9.23625 22.1688 8.665 21.7525 8.24875C21.335 7.83125 20.7637 7.62 19.6212 7.1975L18.75 6.875L19.6212 6.5525C20.7637 6.13 21.335 5.91875 21.7512 5.5025C22.1687 5.085 22.38 4.51375 22.8025 3.37125L23.125 2.5Z" stroke="currentColor" stroke-width="1.875" stroke-linecap="round" stroke-linejoin="round"/>
</svg>
