<svg width="30" height="30" viewBox="0 0 30 30" fill="none" xmlns="http://www.w3.org/2000/svg">
<path d="M16.25 3.7525C15.6625 3.75083 15.0375 3.75 14.375 3.75C8.7775 3.75 5.9775 3.75 4.23875 5.48875C2.5 7.2275 2.5 10.0262 2.5 15.625C2.5 21.2225 2.5 24.0225 4.23875 25.7612C5.9775 27.5 8.77625 27.5 14.375 27.5C19.9725 27.5 22.7725 27.5 24.5112 25.7612C26.25 24.0225 26.25 21.2238 26.25 15.625C26.25 14.9625 26.2492 14.3375 26.2475 13.75" stroke="currentColor" stroke-width="1.875" stroke-linecap="round" stroke-linejoin="round"/>
<path d="M8.75 21.875C11.665 18.8225 17.0537 18.6788 20 21.875M23.125 2.5L23.4475 3.37125C23.87 4.51375 24.0812 5.085 24.4975 5.50125C24.915 5.91875 25.4862 6.13 26.6287 6.5525L27.5 6.875L26.6287 7.1975C25.4862 7.62 24.915 7.83125 24.4988 8.2475C24.0813 8.665 23.87 9.23625 23.4475 10.3788L23.125 11.25L22.8025 10.3788C22.38 9.23625 22.1688 8.665 21.7525 8.24875C21.335 7.83125 20.7637 7.62 19.6212 7.1975L18.75 6.875L19.6212 6.5525C20.7637 6.13 21.335 5.91875 21.7512 5.5025C22.1687 5.085 22.38 4.51375 22.8025 3.37125L23.125 2.5ZM17.4937 12.5C17.4937 14.225 16.0937 15.625 14.365 15.625C13.9542 15.6257 13.5473 15.5453 13.1676 15.3886C12.7879 15.2318 12.4428 15.0017 12.1521 14.7115C11.8613 14.4212 11.6307 14.0765 11.4734 13.697C11.316 13.3176 11.235 12.9108 11.235 12.5C11.235 10.775 12.635 9.375 14.365 9.375C14.7757 9.37451 15.1825 9.45497 15.562 9.6118C15.9416 9.76862 16.2866 9.99873 16.5771 10.289C16.8677 10.5792 17.0982 10.9239 17.2555 11.3032C17.4128 11.6826 17.4938 12.0893 17.4937 12.5Z" stroke="currentColor" stroke-width="1.875" stroke-linecap="round" stroke-linejoin="round"/>
</svg>
